<svg xmlns="http://www.w3.org/2000/svg" width="120" height="120" viewBox="0 0 120 120" fill="none">
  <path d="M58.5456 11.7816C58.452 11.472 58.392 11.28 58.3632 11.2056C58.3368 11.1312 58.3008 11.0688 58.26 11.0184C57.8952 10.944 57.6768 10.92 56.7192 10.9104C55.0032 10.8888 52.5168 11.0976 50.4672 11.5512C48.9192 11.8968 45.756 13.0344 43.8696 13.9416C42.3576 14.6808 39.5976 16.5216 38.7576 17.208C37.6152 18.144 34.6392 21.2304 33.9336 22.056C32.8656 23.304 31.0896 25.7256 29.8848 27.5736C28.8672 29.1552 27.2184 32.196 26.6328 33.6384C25.9584 35.34 25.0704 38.0424 24.6024 39.9528C24.1752 41.8176 23.8296 44.8608 23.868 46.4184C23.928 48.564 24.3048 50.6136 25.2168 53.6424C25.7712 55.44 27.2688 58.224 28.176 59.5032C29.1816 60.9192 30.7272 62.4576 32.5128 64.0896C33.9024 65.3424 36.8328 67.3968 37.608 68.0304C38.184 68.5056 39.4368 69.66 40.0248 70.2264C40.6512 70.8408 41.268 71.7576 41.6184 72.6768C41.9808 73.6608 42.7248 78.3768 42.8472 79.404C43.1328 81.816 43.0512 92.8056 43.1832 93.5928C43.236 93.8856 43.6368 95.5824 43.8528 96.0504C44.0328 96.432 44.748 97.368 45.204 97.7592C45.6576 98.1264 46.9728 98.5584 48.2856 98.7456C49.3896 98.892 53.2272 98.6112 54.984 98.4744C56.1216 98.388 60.1536 98.4096 60.3144 98.3592C60.4128 98.328 60.5136 98.2344 60.6192 98.0784" stroke="black" stroke-width="2.4" stroke-linecap="round"/>
  <path d="M61.1592 11.7792C61.2528 11.4696 61.3128 11.2776 61.3392 11.2032C61.368 11.1288 61.4016 11.0664 61.4424 11.016C61.8072 10.9416 62.0256 10.9176 62.9832 10.9056C64.6992 10.8816 67.1856 11.088 69.2352 11.5368C70.7856 11.88 73.9512 13.0128 75.8376 13.9176C77.352 14.6544 80.1144 16.4928 80.9568 17.1768C82.0968 18.1104 85.0776 21.192 85.7856 22.0152C86.856 23.2656 88.6344 25.6824 89.8416 27.528C90.8616 29.1072 92.5152 32.148 93.1032 33.588C93.7824 35.2896 94.6752 37.9896 95.1456 39.9C95.5752 41.7624 95.9256 44.8056 95.8872 46.3656C95.832 48.5088 95.4576 50.5608 94.5504 53.592C93.9984 55.3896 92.5056 58.1736 91.6008 59.4576C90.5952 60.8712 89.052 62.4144 87.2688 64.0488C85.884 65.304 82.9536 67.3608 82.1808 67.9968C81.6048 68.472 80.3544 69.6288 79.7688 70.1952C79.1424 70.812 78.5256 71.7288 78.1776 72.6504C77.8152 73.6344 77.0784 78.3504 76.9584 79.3776C76.6776 81.792 76.776 92.7816 76.644 93.5688C76.5936 93.8616 76.1952 95.5584 75.9792 96.0264C75.7992 96.408 75.084 97.3464 74.6304 97.7352C74.1768 98.1048 72.8616 98.5392 71.5488 98.7288C70.4448 98.8752 66.6072 98.6016 64.8504 98.4672C63.7152 98.3832 59.6808 98.4096 59.52 98.3592C59.4216 98.328 59.3208 98.2344 59.2152 98.0784" stroke="black" stroke-width="2.4" stroke-linecap="round"/>
  <path d="M46.3536 99.396C46.5 99.5328 46.608 99.6312 46.68 99.6912C46.7856 99.7872 46.824 99.8424 46.7928 99.852C46.632 99.9072 45.9 99.9048 45.4752 100.006C45.0504 100.111 43.9104 100.889 43.4136 101.441C42.96 101.964 42.7392 103.051 42.8784 103.584C43.0872 104.328 43.8264 105.053 44.3928 105.331C44.6208 105.442 45.732 105.883 45.792 105.97C45.7632 106.133 44.5872 106.783 43.7976 107.21C43.2024 107.558 42.3552 108.305 42.0792 108.852C41.9448 109.14 41.9736 109.762 42.168 110.059C42.5496 110.626 43.6656 111.031 44.28 111.058C44.5176 111.067 44.8464 111.065 44.9208 111.06C44.952 111.262 43.9656 112.229 43.8624 112.332C43.3416 112.85 42.8016 113.856 42.72 114.362C42.6456 114.902 42.8856 115.994 43.2024 116.335C43.5648 116.707 44.748 117.13 45.0384 117.185C45.4656 117.259 49.3512 117.502 51.168 117.667C52.9728 117.826 59.076 117.842 59.9904 117.845" stroke="black" stroke-width="2.4" stroke-linecap="round"/>
  <path d="M73.4832 99.3768C73.3368 99.5136 73.2264 99.612 73.1568 99.672C73.0512 99.768 73.0128 99.8208 73.044 99.8328C73.2048 99.888 73.9368 99.8832 74.3616 99.984C74.7864 100.087 75.9288 100.865 76.4256 101.417C76.8792 101.938 77.1024 103.025 76.9632 103.56C76.7568 104.302 76.0176 105.029 75.4512 105.31C75.2232 105.418 74.1144 105.862 74.052 105.95C74.0832 106.111 75.2616 106.759 76.0512 107.186C76.6464 107.534 77.496 108.278 77.772 108.826C77.9064 109.114 77.8776 109.735 77.6856 110.033C77.304 110.599 76.188 111.007 75.5736 111.036C75.336 111.043 75.0072 111.043 74.9328 111.038C74.9016 111.238 75.888 112.205 75.9912 112.308C76.5168 112.826 77.0568 113.83 77.1384 114.336C77.2128 114.876 76.9752 115.968 76.6584 116.309C76.2984 116.683 75.1152 117.108 74.8248 117.161C74.3976 117.238 70.512 117.487 68.6952 117.655C66.8904 117.816 60.7872 117.84 59.8728 117.845" stroke="black" stroke-width="2.4" stroke-linecap="round"/>
  <path d="M59.8104 93.9312C59.8152 94.0608 59.82 94.188 59.8248 94.3176C59.8272 94.4016 59.832 94.4832 59.8344 94.5648C59.8728 94.3392 59.9088 94.1112 59.9472 93.8832C60.1512 92.7288 61.1184 88.9464 61.3512 87.8496C61.704 86.0616 62.4912 81.5208 62.5704 80.688C62.736 78.7752 62.8272 75.7752 62.52 74.1744C62.388 73.5192 61.7832 72.1368 61.3992 71.796C61.1904 71.6208 60.7296 71.4264 60.4368 71.3928C60.0528 71.3592 59.3208 71.4552 58.9416 71.6112C58.4808 71.8128 57.96 72.228 57.6024 72.66C57.0432 73.3536 56.5656 74.3448 56.448 74.9952C56.3832 75.3792 56.4864 76.1352 56.6352 76.56C56.7504 76.8624 57.1584 77.4552 57.4032 77.6952C57.8112 78.0816 58.8168 78.2328 59.5152 78.084C60.0888 77.952 61.4208 77.2296 61.9608 76.7112C62.6088 76.08 63.5184 74.8056 63.7992 74.1864C64.2528 73.1472 64.6992 71.148 64.752 69.8688C64.8024 68.5032 64.3128 65.3304 63.78 63.6168C63.3384 62.2104 61.9416 59.0904 61.308 57.9696C60.9984 57.4296 60.1176 56.376 59.6904 56.0376C59.2368 55.6944 58.4952 55.3296 58.0848 55.2864C57.7224 55.2576 57.0336 55.4112 56.7672 55.5816C56.4288 55.8096 55.9008 56.3112 55.6968 56.6184C55.44 57.0264 55.1208 57.8016 55.0584 58.224C54.9456 59.0688 55.3776 60.756 55.8264 61.3536C56.1264 61.7328 57.276 62.316 57.8856 62.3208C58.5864 62.3112 59.8536 61.716 60.3696 61.2768C60.9552 60.7704 61.3416 60.3288 61.7256 59.6688C62.292 58.668 62.7624 57.7488 63.0096 56.964C63.6192 54.9816 63.9768 51.8496 63.9072 50.2512C63.8256 48.54 62.9784 45.5136 62.412 44.412C61.9536 43.536 61.4256 42.7488 60.7368 41.9184C60.2712 41.3664 59.3136 40.6728 58.848 40.476C58.464 40.32 57.6672 40.1568 57.264 40.1616C56.9568 40.1688 56.2272 40.4016 55.8768 40.5792C55.6128 40.7208 55.092 41.2464 54.8376 41.604C54.4056 42.2328 54.1152 43.6992 54.1392 44.1552C54.168 44.58 54.336 45.2952 54.5112 45.7032C54.696 46.1088 55.1424 46.6896 55.5072 47.0016C55.9944 47.4024 57.4224 47.7864 58.3152 47.6856C58.9728 47.5992 60.3216 46.836 60.7584 46.4424C61.644 45.6312 62.8536 43.6224 63.3144 42.336C63.7752 41.0424 64.2552 37.8912 64.1544 36.1824C64.0944 35.2824 63.7824 33.804 63.4512 32.9184C63.132 32.076 62.5248 30.936 61.9872 30.216C61.3248 29.3424 60.36 28.3488 59.6232 27.7392C57.7344 26.2032 57.1056 25.7736 56.856 25.632C56.2128 25.2672 55.8864 25.0224 55.6872 24.768" stroke="black" stroke-width="1.44" stroke-linecap="round"/>
  <path d="M44.0856 105.602C43.8336 105.53 43.6824 105.485 43.6272 105.466C43.572 105.446 43.5384 105.43 43.524 105.413C43.7856 105.446 43.9464 105.482 44.5776 105.65C46.0488 106.039 49.0728 106.248 51.24 106.313C52.0896 106.322 53.6976 106.33 54.456 106.327C55.236 106.337 56.772 106.363 57.528 106.38C58.5672 106.416 59.3616 106.459 60.1128 106.522" stroke="black" stroke-width="1.44" stroke-linecap="round"/>
  <path d="M75.444 111.564L75.7344 111.276L75.7464 111.113C75.7224 111.07 75.6792 111.034 75.6168 111.01C75.468 110.952 75.2616 110.894 74.9952 110.834C74.1384 110.65 71.5656 110.58 68.364 110.558C66.9096 110.566 64.092 110.592 62.7288 110.609C61.9848 110.616 60.3312 110.628 59.3928 110.592C58.6152 110.561 57.756 110.474 57.5784 110.455" stroke="black" stroke-width="1.44" stroke-linecap="round"/>
  <path d="M44.0328 112.373C43.8864 112.387 43.7928 112.397 43.7496 112.399C43.7064 112.402 43.6536 112.402 43.5912 112.399C43.632 112.354 43.7592 112.284 43.944 112.224C44.6616 111.984 46.1952 111.396 46.6416 111.271C46.8912 111.204 48.5256 110.861 49.2072 110.755C49.7736 110.666 50.9904 110.527 51.7344 110.424C52.0776 110.376 52.3128 110.333 52.44 110.297C52.8312 110.184 53.3208 109.932 53.5392 109.764" stroke="black" stroke-width="1.44" stroke-linecap="round"/>
  <path d="M76.2504 104.758L76.2528 104.566C76.1208 104.515 75.1848 104.813 74.7024 104.918C73.7184 105.125 72.8448 105.228 71.94 105.245C71.1144 105.252 69.4392 105.259 68.88 105.235C68.8704 105.235 68.2536 105.194 67.8768 105.175C67.5888 105.161 66.1584 105.103 64.812 105.242" stroke="black" stroke-width="1.44" stroke-linecap="round"/>
</svg>