<svg xmlns="http://www.w3.org/2000/svg" width="48" height="48" viewBox="0 0 48 48" fill="none">
  <path d="M29.1984 6.82319C29.184 6.81119 28.2744 6.66719 27.8928 6.69359C27.6528 6.71279 26.2416 7.11359 25.7472 7.30079C24.912 7.61999 23.6184 8.36879 23.2896 8.66399C22.704 9.19919 21.9408 10.2264 21.72 10.5744C21.456 10.9968 20.9976 11.9352 20.8008 12.4632C20.6256 12.9408 20.3328 14.1024 20.2512 14.928C20.1768 15.7512 20.2752 17.3112 20.4744 18.1752C20.6616 18.9552 21.0504 19.9008 21.3984 20.5992C21.6912 21.1728 22.404 22.1064 22.836 22.536C23.124 22.8168 24.6504 24.072 24.7608 24.1704C25.44 24.7728 25.8576 25.3752 25.9752 25.7304C26.2368 26.5752 25.932 30.0744 25.9968 30.4512C26.0688 30.8448 26.28 31.3944 26.4408 31.656C26.5896 31.8864 27.0072 32.2488 27.3624 32.2968C27.984 32.3712 29.0304 32.472 29.2776 32.5032C29.388 32.5176 29.4624 32.5272 29.4984 32.5344C29.5464 32.5416 29.6568 32.568 29.6664 32.5656" stroke="black" stroke-width="1.92" stroke-linecap="round" stroke-linejoin="round"/>
  <path d="M29.9016 6.82557C29.916 6.81357 30.828 6.67917 31.2072 6.71037C31.4496 6.73197 32.856 7.14717 33.348 7.33917C34.1784 7.66557 35.4672 8.42877 35.7912 8.72877C36.372 9.26877 37.1256 10.3032 37.3416 10.6536C37.6008 11.0784 38.052 12.0216 38.2416 12.552C38.412 13.032 38.6952 14.196 38.7672 15.0216C38.832 15.8448 38.7192 17.4024 38.5104 18.2664C38.316 19.044 37.9176 19.9872 37.5624 20.6808C37.2648 21.252 36.5424 22.1784 36.1056 22.6032C35.8152 22.8816 34.2768 24.1224 34.164 24.2184C33.4776 24.8136 33.0552 25.4136 32.9328 25.764C32.6664 26.6088 32.9328 30.1104 32.8656 30.4872C32.7888 30.8784 32.5728 31.4256 32.4072 31.6848C32.2584 31.9152 31.8384 32.2728 31.4808 32.3184C30.8568 32.3856 29.8104 32.4768 29.5632 32.5056C29.4528 32.5176 29.3784 32.5272 29.3424 32.5344C29.2944 32.5416 29.184 32.5656 29.1744 32.5632" stroke="black" stroke-width="1.92" stroke-linecap="round" stroke-linejoin="round"/>
  <path d="M26.5872 32.652C26.5704 32.6736 26.5104 32.7096 26.4528 32.7264C26.1048 32.8344 25.6992 33.0144 25.5288 33.1992C25.3872 33.3576 25.2408 33.7248 25.2336 33.9072C25.2336 34.2048 25.9368 34.5936 25.9272 34.6032C25.9656 34.7304 24.84 35.736 24.8784 36.1608C24.9408 36.564 25.9824 36.7416 26.004 36.7632C26.04 36.8184 25.5696 37.512 25.5048 37.632C25.3176 37.9776 25.4112 38.3928 25.5504 38.532C25.668 38.6424 26.2224 38.8344 26.7144 38.8296C26.8872 38.8272 29.0544 38.7192 29.2824 38.6976C29.3712 38.6904 29.4624 38.6736 29.5488 38.652C29.568 38.6472 29.5896 38.64 29.6112 38.6328" stroke="black" stroke-width="0.96" stroke-linecap="round" stroke-linejoin="round"/>
  <path d="M32.2536 32.6808C32.2704 32.7024 32.3304 32.7408 32.3856 32.7576C32.7336 32.868 33.1368 33.0528 33.3048 33.2376C33.444 33.3984 33.588 33.7656 33.5928 33.9504C33.5904 34.2456 32.8824 34.6296 32.892 34.6392C32.8536 34.7664 33.9696 35.784 33.924 36.2064C33.8592 36.6096 32.8152 36.7752 32.7936 36.7968C32.7576 36.852 33.2208 37.5504 33.2856 37.6728C33.468 38.0208 33.3696 38.4312 33.228 38.5704C33.1128 38.6784 32.556 38.868 32.064 38.856C31.8912 38.8512 29.724 38.7216 29.4984 38.7C29.4072 38.6904 29.3184 38.6736 29.2296 38.652C29.2104 38.6448 29.1888 38.6376 29.1672 38.6304" stroke="black" stroke-width="0.96" stroke-linecap="round" stroke-linejoin="round"/>
  <path d="M25.7953 34.656C25.8169 34.6464 27.0049 34.956 27.5377 35.028C27.6721 35.0448 27.9817 35.088 28.1569 35.112" stroke="black" stroke-width="0.96" stroke-linecap="round" stroke-linejoin="round"/>
  <path d="M33.0241 34.692C33.0025 34.6824 31.8121 34.9824 31.2769 35.0472C31.1425 35.0616 30.8329 35.1024 30.6577 35.124" stroke="black" stroke-width="0.96" stroke-linecap="round" stroke-linejoin="round"/>
  <path d="M25.5193 36.7776C25.5625 36.8232 25.6513 36.8568 25.8241 36.8712C26.5345 36.924 27.0337 36.9024 27.8305 36.84C27.9529 36.828 28.3441 36.8112 28.5577 36.8016" stroke="black" stroke-width="0.96" stroke-linecap="round" stroke-linejoin="round"/>
  <path d="M33.2785 36.816C33.2353 36.8616 33.1465 36.8952 32.9713 36.9072C32.2633 36.9528 31.7641 36.9264 30.9673 36.8544C30.8449 36.8424 30.4537 36.8208 30.2401 36.8088" stroke="black" stroke-width="0.96" stroke-linecap="round" stroke-linejoin="round"/>
  <path d="M30.2784 10.8768C30.2328 10.9176 29.2296 11.772 28.776 12.4392C28.464 12.9144 27.9768 14.0712 27.8376 14.6592C27.6456 15.5352 27.7272 16.8912 27.9336 17.4192C28.1496 17.9352 28.7592 18.3744 29.0496 18.4056C29.2896 18.4248 29.6472 18.3504 29.844 18.2448C30.0336 18.132 30.5208 17.5392 30.648 17.1312C30.7512 16.7856 30.564 16.1976 30.324 16.0584C30.0744 15.9288 29.556 16.0872 29.2488 16.3656C28.98 16.6152 28.4784 17.4024 28.32 17.82C28.14 18.3096 27.9024 19.5576 27.8592 20.184C27.8112 20.9232 27.8952 22.0128 28.0464 22.5456C28.2096 23.1024 28.6848 24.0024 28.98 24.2328C29.2896 24.4656 29.9376 24.4128 30.1968 24.1896C30.432 23.9784 30.7704 23.1696 30.816 22.7472C30.852 22.3536 30.6504 21.7464 30.4296 21.6096C30.2256 21.4944 29.796 21.6696 29.5848 21.924C29.3808 22.176 28.9824 23.0256 28.8672 23.5584C28.7568 24.1008 28.6848 25.4616 28.7304 26.0736C28.8288 27.2856 29.4096 28.7208 29.6112 28.9848" stroke="black" stroke-width="0.96" stroke-linecap="round" stroke-linejoin="round"/>
  <path d="M10.8673 17.664C10.8073 17.6832 10.7161 17.7312 10.6633 17.7888C10.5097 17.9592 10.3105 18.6144 10.3009 19.1184C10.2913 20.0976 11.0977 22.3248 12.0241 23.9448C14.9257 28.896 18.9721 36.6792 19.6993 37.764C20.0665 38.3016 20.8633 39.0528 21.1921 39.1752C21.4921 39.276 21.9001 38.9448 22.0417 38.5008C22.3033 37.6392 22.0489 34.8528 21.6985 33.4248C21.2185 31.4712 18.2425 23.2032 17.2801 21.1008C16.3609 19.1328 15.1273 17.1576 14.5969 16.7808C14.3233 16.5936 13.6009 16.3824 13.0465 16.4424C12.8473 16.4688 12.1873 16.6632 11.9785 16.7616C11.6929 16.9032 10.8841 17.3688 10.7329 17.4576C10.6081 17.5344 10.5025 17.5944 10.4209 17.6376C10.3489 17.6736 10.2721 17.7024 10.2625 17.7024" stroke="black" stroke-width="1.0344" stroke-linecap="round" stroke-linejoin="round"/>
  <path d="M10.4329 17.844C10.4353 17.8248 10.3297 17.5296 10.2241 17.28C10.0393 16.8456 9.42971 15.6888 9.38651 15.5976C9.17051 15.0744 13.0489 14.124 13.0825 14.1288C13.1209 14.1624 13.4713 15.2568 13.5409 15.456C13.6993 15.9024 13.8601 16.3584 13.8601 16.3584" stroke="black" stroke-width="1.0344" stroke-linecap="round" stroke-linejoin="round"/>
  <path d="M9.64566 15.264C9.63366 15.2808 9.51366 15.2712 9.37926 15.228C9.06966 15.1248 8.07606 14.3712 7.76406 13.9944C7.44006 13.5984 7.08966 12.636 7.01286 12.0096C6.95046 11.46 7.05606 10.4448 7.22646 9.94798C7.37286 9.53758 7.94886 8.75038 8.34966 8.21758C9.06006 7.17838 8.75046 6.06958 8.75766 6.06238C9.03366 6.15358 10.7497 8.03518 11.4169 8.99278C11.8153 9.57118 12.3889 10.6032 12.5617 11.2128C12.7273 11.8248 12.8137 13.7088 12.8257 13.7424C12.8257 13.7424 12.8185 13.7424 12.8065 13.74" stroke="black" stroke-width="1.0344" stroke-linecap="round" stroke-linejoin="round"/>
  <path d="M34.2697 10.3632C34.2553 10.3704 34.1113 10.404 34.0513 10.4208C33.7393 10.5096 33.2641 10.8144 33.2113 10.9368C33.1681 11.0616 33.2689 11.34 33.4393 11.4768C33.5233 11.544 34.3009 12.0888 34.5505 12.3888C34.8577 12.7656 35.1481 13.4352 35.3377 14.0016C35.4169 14.2152 35.6329 14.3448 35.8153 14.2608C35.9953 14.172 36.3313 13.7856 36.4441 13.5432C36.5593 13.284 36.5689 12.7128 36.4249 12.2808C36.2785 11.8824 35.2273 10.6392 34.8433 10.3656C34.5889 10.1928 34.3081 10.1088 34.2937 10.0944" stroke="black" stroke-width="0.96" stroke-linecap="round" stroke-linejoin="round"/>
</svg>