<svg xmlns="http://www.w3.org/2000/svg" width="120" height="120" viewBox="0 0 120 120" fill="none">
  <path d="M92.3376 12.288C92.0136 12.4632 91.584 12.66 91.2888 12.792C91.0824 12.888 90.2016 13.3344 89.784 13.5336C89.412 13.7088 69.0312 22.9992 62.1216 26.1624C55.5168 29.2656 42.3576 35.568 35.8008 38.7672C32.0736 40.644 24.9288 44.2704 21.5112 46.0176C19.5816 47.0496 13.188 50.748 11.7264 51.7464C11.6928 51.7704 11.6784 51.7704 11.688 51.7512" stroke="black" stroke-width="2.4" stroke-linecap="round"/>
  <path d="M91.86 12.7296C91.8696 12.48 91.872 12.3288 91.872 12.2784C91.872 12.2304 91.8648 12.2112 91.8528 12.2232C91.8216 12.4992 91.7568 13.1016 91.7208 13.428C91.332 16.8264 90.456 23.8968 89.9664 27.5712C88.8168 34.98 86.4552 49.4352 85.2432 56.4792C83.928 64.0848 81.1872 79.7928 79.764 87.8976C79.4928 89.4 78.9216 92.5128 78.6216 94.1208C78.4656 94.8912 78.1872 95.868 77.9784 96.0096" stroke="black" stroke-width="2.4" stroke-linecap="round"/>
  <path d="M12.0984 51.7656C12.0288 51.732 11.9808 51.7176 11.9544 51.7224C11.9304 51.7272 11.892 51.7608 11.8392 51.8208C11.9016 51.8928 11.964 51.9648 12.0288 52.0392C13.2888 53.4816 19.152 58.1856 22.1328 60.5592C27.0048 64.4616 30.7416 67.8432 33.4104 70.284C36.864 73.4928 38.3448 74.8752 38.7864 75.4104C38.832 75.4656 38.88 75.5328 38.9304 75.6096" stroke="black" stroke-width="2.4" stroke-linecap="round"/>
  <path d="M76.5264 95.9616L76.6152 95.9904C76.2144 95.9424 75.8808 95.8872 75.5808 95.8056C74.9352 95.6304 73.4496 95.0568 72.8568 94.776C71.0928 93.9312 58.3104 86.112 55.0152 84.0336C53.0736 82.7592 51.4728 81.5256 50.6208 81.096C48.36 79.944 47.3688 79.1112 47.2128 79.0056C47.1648 78.9744 47.0976 78.9552 47.004 78.9456" stroke="black" stroke-width="2.4" stroke-linecap="round"/>
  <path d="M36.5664 75.1992L36.108 75.4728C36.0864 75.4248 36.8088 74.6136 37.26 74.1048C42.144 68.3832 51.9048 57 56.7816 51.336C59.268 48.4608 64.1832 42.7368 66.6144 39.888C69.0432 36.9648 73.8312 31.1016 76.1904 28.1592C81.3816 21.7392 86.6088 15.9408 87.8304 14.5872C88.116 14.268 88.6608 13.692 88.8696 13.4568C88.956 13.3608 89.0592 13.236 89.1792 13.0824" stroke="black" stroke-width="2.4" stroke-linecap="round"/>
  <path d="M47.532 79.7952L47.6232 79.8696C47.7648 79.8768 47.952 79.7928 48.1032 79.5888C48.216 79.4328 49.6944 76.9152 50.5536 75.4656C52.9848 71.52 62.484 57.0408 66.72 50.6328C68.8272 47.4048 72.7368 41.3616 74.5368 38.5464C76.3224 35.6328 79.86 29.7552 81.6072 26.7912C84.2208 22.296 86.0328 18.9552 87.1728 16.6464C87.3528 16.2648 87.708 15.504 87.7896 15.312C87.864 15.1344 88.2864 14.0136 88.4208 13.6488" stroke="black" stroke-width="2.4" stroke-linecap="round"/>
  <path d="M39.0336 74.088C38.7672 74.208 38.604 74.2872 38.5464 74.328C38.3256 74.4744 38.6568 74.4672 39.1728 74.328C39.5472 74.2248 43.9392 72.8112 43.9944 72.7944C43.9968 72.7944 44.004 72.7992 44.0016 72.8016" stroke="black" stroke-width="2.4" stroke-linecap="round"/>
  <path d="M46.7543 78.6432L46.9343 78.7848L47.0207 78.7056C47.0423 78.5952 46.9871 78.3096 46.8479 77.9208C46.1303 75.9816 45.5135 74.0112 45.3359 73.3224" stroke="black" stroke-width="2.4" stroke-linecap="round"/>
  <path d="M44.3568 73.2696C44.2368 73.4496 44.1192 73.6272 43.9992 73.8072C43.8648 74.0088 43.848 74.0376 43.8384 74.0592C43.9536 73.9632 44.0496 73.8768 44.1336 73.7976C45.0168 72.9408 50.724 65.3472 52.884 62.4144C56.6736 57.5472 64.62 47.2824 68.7768 41.8872C70.8696 39.1176 74.4 34.3992 81.204 24.3528C81.7392 23.5632 82.8 21.9984 83.1192 21.5496C83.2848 21.3216 83.5992 20.88 83.748 20.6664C83.9016 20.4504 84.2112 20.0184 84.348 19.8432C84.6432 19.4664 85.2696 18.8232 85.4328 18.6576" stroke="black" stroke-width="1.2" stroke-linecap="round"/>
  <path d="M54.3575 91.0344L54.8735 90.636C54.9407 90.6984 54.9047 90.9672 54.7391 91.4304C54.6671 91.6344 54.2927 92.5608 54.1607 92.892C53.4263 94.7016 52.0727 97.9632 51.2639 99.0864C50.6135 99.9792 49.6727 101.002 48.9671 101.592C48.4367 102.026 47.2919 102.552 46.7039 102.466C46.3967 102.413 46.0079 102.132 45.9191 101.909C45.7559 101.443 45.9935 100.351 46.4039 99.6984C46.7591 99.1512 47.8391 98.34 48.4199 98.1936C48.9623 98.064 49.8023 98.3592 49.9583 98.6952C50.1215 99.0888 50.0951 100.404 49.9319 101.242C49.5959 102.751 49.0151 105.574 48.9719 106.793C48.9479 107.518 49.0415 108.624 49.1879 109.286C49.2719 109.627 49.5167 110.138 49.7615 110.455C49.9703 110.714 50.6639 110.995 51.1703 111.048C51.5807 111.082 52.4135 110.866 52.6223 110.659C52.9367 110.333 53.3639 109.138 53.4887 108.648" stroke="black" stroke-width="1.2" stroke-linecap="round"/>
  <path d="M26.3616 75.2496C26.5248 74.7432 26.6208 74.4624 26.6688 74.3496C26.6784 74.3304 26.6976 74.2896 26.7264 74.2272C26.5584 74.5392 26.472 74.688 26.2848 74.9664C24.96 76.9872 23.9184 78.4536 22.8024 79.6296C21.5496 80.9376 19.0032 82.7208 17.8656 83.1552C17.3952 83.3232 16.416 83.5632 16.0728 83.5368C15.5712 83.4912 14.988 83.1504 14.8368 82.8408C14.6352 82.3704 14.9304 81.0984 15.312 80.748C15.552 80.5368 15.9912 80.3352 16.2528 80.3136C16.6632 80.2944 17.4888 80.8824 17.7072 81.456C17.8608 81.8904 17.6688 83.0904 17.4528 83.5728C17.244 84.036 16.5504 85.1448 16.2288 85.5168C15.8232 85.9728 14.5584 86.8344 13.8552 87.0768C13.1472 87.312 11.6256 87.456 10.872 87.3456C10.3608 87.2664 8.99039 86.9016 8.50799 86.664C8.25599 86.5344 8.06639 86.4096 7.93919 86.2896C7.82639 86.1792 7.79039 85.896 7.74719 85.38" stroke="black" stroke-width="1.2" stroke-linecap="round"/>
</svg>