<svg xmlns="http://www.w3.org/2000/svg" width="48" height="48" viewBox="0 0 48 48" fill="none">
  <path d="M4.96802 16.3368C5.03282 16.3392 5.37842 16.2408 5.52002 16.2024C6.13922 16.0296 10.0032 14.4912 11.4192 14.0424C13.2888 13.476 17.5248 12.2208 17.9088 12.096C31.6824 7.31041 41.892 3.92641 42.0552 4.03201C42.0552 4.47121 41.4648 5.54401 41.2032 6.11281C40.3896 7.88401 38.1048 15.2472 37.0344 18.7608C35.8536 22.5696 33.5448 29.6448 32.4168 32.9088C31.0848 36.7104 30.6312 38.628 30.5472 38.6136L20.1216 29.4408" stroke="black" stroke-width="1.92" stroke-linecap="round" stroke-linejoin="round"/>
  <path d="M15.3408 25.3728C14.5296 24.84 6.60005 17.7336 5.67845 16.9152C5.41685 16.6896 5.05925 16.38 5.00405 16.3272C4.98245 16.3056 4.96325 16.2864 4.94165 16.2672" stroke="black" stroke-width="1.92" stroke-linecap="round" stroke-linejoin="round"/>
  <path d="M41.0065 4.5072C40.8385 4.6512 38.1721 6.3744 36.9433 7.2816C34.1545 9.4104 29.4241 13.38 26.7145 15.684C23.9881 18.0768 19.8937 21.6768 18.5257 22.884C16.3201 24.7992 15.0937 25.8072 15.0961 25.8048" stroke="black" stroke-width="0.96" stroke-linecap="round" stroke-linejoin="round"/>
  <path d="M40.9249 4.8288C40.8793 4.8672 40.8529 4.8912 40.8433 4.9032C40.7761 4.992 38.3161 7.1424 37.1401 8.3856C36.8137 8.7384 30.3553 16.296 28.2529 18.8784C25.8745 21.7824 22.4233 26.0304 19.9897 29.4864C19.7449 29.8272 19.6849 29.904 19.6177 29.976" stroke="black" stroke-width="0.96" stroke-linecap="round" stroke-linejoin="round"/>
  <path d="M19.0752 26.1336C20.3976 24.6264 24.2424 20.424 27.9672 16.4208C30.4776 13.6824 35.6304 8.89198 37.0968 7.45678C37.5984 6.98158 38.6904 5.93998 39.156 5.55118C40.0032 4.84558 40.164 4.73278 40.4616 4.56238" stroke="black" stroke-width="0.96" stroke-linecap="round" stroke-linejoin="round"/>
  <path d="M11.1864 24.4128C10.9416 24.5544 10.7856 24.648 10.7184 24.6984C10.4808 24.8736 9.46083 26.2368 9.17523 26.784C8.87523 27.3768 8.60403 28.7856 8.65203 29.6088C8.71683 30.5544 9.09843 31.7832 9.31923 32.1216C9.66243 32.6256 10.356 33.1416 10.7424 33.1848C11.1168 33.2232 11.7264 32.9112 11.8368 32.6928C11.9688 32.4216 11.7864 31.944 11.5536 31.9248C11.3376 31.9152 10.8696 32.3832 10.728 32.8752C10.6272 33.2472 10.6248 34.3008 10.7064 34.7736C10.8072 35.3304 11.1408 36.2496 11.3736 36.6144C11.9664 37.5144 13.08 37.9608 13.1568 37.9632" stroke="black" stroke-width="0.96" stroke-linecap="round" stroke-linejoin="round"/>
  <path d="M23.1049 34.272C23.0977 34.2744 23.0449 34.2744 23.0089 34.296C22.7857 34.4352 21.8257 35.544 21.3745 36.3552C21.1825 36.7056 20.8993 37.6704 20.8537 38.0712C20.8105 38.496 20.8777 39.5232 21.0985 39.9552C21.2569 40.26 21.7633 40.5192 21.9097 40.5312C22.1617 40.5456 22.6369 40.3584 22.7905 40.1208C22.9777 39.8232 22.9729 39.3192 22.7809 39.1608C22.5481 39.1104 22.0921 39.4344 21.8857 39.7968C21.6865 40.1616 21.5137 41.1216 21.5881 41.7C21.6745 42.3072 22.1185 43.2048 22.5049 43.5144C23.2921 44.1192 24.6193 44.0184 24.8785 43.8744" stroke="black" stroke-width="0.96" stroke-linecap="round" stroke-linejoin="round"/>
  <path d="M15.8401 25.104C15.9961 25.1376 17.1745 25.4256 17.7025 25.536C18.2281 25.6824 18.9481 25.872 19.2001 25.8984C19.2649 25.9056 19.3897 25.9152 19.5769 25.9272" stroke="black" stroke-width="0.96" stroke-linecap="round" stroke-linejoin="round"/>
  <path d="M19.5553 25.7088C19.6033 25.9608 19.7377 27.1128 20.0017 28.1832C20.0521 28.38 20.1913 28.8768 20.2513 29.0832C20.2753 29.172 20.2993 29.2584 20.3257 29.3472" stroke="black" stroke-width="0.96" stroke-linecap="round" stroke-linejoin="round"/>
</svg>