<svg xmlns="http://www.w3.org/2000/svg" width="120" height="120" viewBox="0 0 120 120" fill="none">
	<path
		d="M58.8192 12.8304L58.8912 13.1016C58.8864 12.9504 58.3824 12.6432 57.4584 12.4344C56.0328 12.12 53.3568 11.8656 51.8352 12.012C50.3664 12.1608 47.772 12.8664 46.1184 13.6248C45.6336 13.8504 44.34 14.6952 43.6824 15.1824C42.7368 15.888 40.2768 18.5832 39.2664 19.6896C37.992 21.024 35.3424 23.6664 34.4352 24.2304C34.0848 24.4464 33.0096 24.8184 32.5848 24.8592C31.6128 24.9432 29.9832 24.4728 29.7888 24.4368C29.4672 24.3792 28.9584 24.3744 28.8864 24.4248C28.7352 24.564 28.7928 25.368 29.04 25.9296C29.3616 26.6448 30.0696 27.5832 30.408 27.9312C31.5744 29.0928 32.8584 29.4096 33.2856 29.4504C33.216 30.5424 32.9976 31.6008 32.6808 32.412C32.3088 33.3408 30.6768 35.8272 29.8992 36.3672C29.0496 36.9024 28.932 37.0656 28.9176 37.0992C28.9872 37.3464 30.036 37.8 30.7872 37.8576C31.4376 37.8936 32.7552 37.5216 32.8632 37.5192C33.0216 37.7016 33.252 38.5272 33.2784 39.5448C33.2976 40.5456 32.76 43.8576 32.1384 45.6864C31.5984 47.2536 30.228 49.6704 29.6184 50.268C29.3928 50.4672 29.076 50.7552 28.9368 50.952C28.9536 51.3072 29.6376 51.84 30.0576 51.768C30.6408 51.6504 32.4744 50.3808 32.6448 50.268C32.7168 50.2176 32.784 50.1792 32.844 50.1528C32.8824 50.2584 32.904 54.3432 33.0096 55.572C33.2208 57.7344 33.5928 60.156 33.9336 61.3344C34.272 62.4936 35.6664 64.8576 36.48 65.7696C37.5504 66.9624 39.5136 68.5272 40.3896 69.0336C40.9248 69.3408 42.0096 69.8256 42.372 69.9192C43.1136 70.104 43.5504 69.9576 43.6296 69.8232C43.4304 69.6864 42.4392 68.9688 42.1128 68.3376C41.8152 67.7424 41.496 66.3024 41.5416 65.9376C41.7048 66.0216 42.7008 67.0392 43.2144 67.4448C43.8648 67.9488 45.2016 68.7528 46.0344 69.1416C46.7952 69.4896 48.0408 69.8304 48.84 69.9216C49.5024 69.9912 50.8896 69.9384 51.4464 69.852C51.9696 69.768 52.5432 69.6096 52.8528 69.4752C52.8984 69.4536 52.9152 69.4416 52.9056 69.4368"
		stroke="black"
		stroke-width="2.4"
		stroke-linecap="round"
	/>
	<path
		d="M60.888 12.8304L60.816 13.0992C60.8208 12.948 61.3224 12.6408 62.2464 12.4296C63.672 12.1128 66.348 11.8536 67.8696 12C69.3384 12.1464 71.9328 12.8496 73.5888 13.6056C74.0736 13.8312 75.3696 14.6712 76.0272 15.1584C76.9752 15.8616 79.4376 18.5544 80.448 19.6584C81.7248 20.9904 84.3816 23.6304 85.2864 24.192C85.6392 24.408 86.7144 24.7776 87.1392 24.8184C88.1112 24.9 89.7384 24.4296 89.9352 24.3912C90.2568 24.3336 90.7632 24.3288 90.8352 24.3792C90.9888 24.516 90.9312 25.3224 90.684 25.884C90.3648 26.5992 89.6592 27.54 89.3208 27.8856C88.1544 29.052 86.8728 29.3688 86.4456 29.4096C86.5176 30.504 86.736 31.56 87.0552 32.3712C87.4272 33.2976 89.064 35.7816 89.844 36.324C90.6936 36.8568 90.8112 37.0176 90.8256 37.0512C90.756 37.3008 89.7072 37.7544 88.9584 37.812C88.3056 37.8504 86.988 37.4808 86.88 37.4784C86.7216 37.6608 86.4912 38.4888 86.4672 39.504C86.4504 40.5048 86.9928 43.8168 87.6168 45.6456C88.1592 47.2128 89.532 49.6248 90.144 50.2224C90.3696 50.4216 90.6864 50.7096 90.8256 50.904C90.8112 51.2592 90.1272 51.7944 89.7072 51.7224C89.124 51.6072 87.288 50.34 87.1176 50.2248C87.0456 50.1768 86.9784 50.1384 86.916 50.112C86.88 50.2176 86.8656 54.3024 86.76 55.5312C86.5512 57.696 86.184 60.1152 85.8456 61.296C85.5072 62.4552 84.1176 64.8192 83.304 65.7336C82.2384 66.9288 80.2752 68.496 79.3992 69.0048C78.8664 69.312 77.7816 69.7992 77.4216 69.8928C76.68 70.08 76.2408 69.9336 76.1616 69.7992C76.3608 69.6624 77.3496 68.9424 77.676 68.3088C77.9736 67.716 78.2904 66.276 78.2448 65.9112C78.0792 65.9928 77.0856 67.0152 76.5744 67.4184C75.924 67.9248 74.5896 68.7312 73.7568 69.12C72.996 69.468 71.7504 69.8136 70.9512 69.9048C70.2888 69.9768 68.9016 69.924 68.3472 69.8376C67.8216 69.756 67.248 69.6 66.9384 69.4632C66.8928 69.444 66.876 69.432 66.8856 69.4272"
		stroke="black"
		stroke-width="2.4"
		stroke-linecap="round"
	/>
	<path
		d="M50.7505 70.7496L50.8393 70.9632L50.8009 71.0832C50.6209 71.1504 50.4937 71.196 50.4193 71.2224C49.0465 71.6808 46.0633 72.7008 44.7097 73.4544C43.4161 74.1792 41.1073 75.9864 39.8017 77.208C39.0625 77.9016 36.3193 80.856 35.5273 81.9048C34.5745 83.1744 33.2041 85.6224 32.6761 86.976C32.0641 88.5552 31.0561 92.0256 30.8209 93.156C30.6409 94.0248 30.0529 97.8 29.9401 99.9264C29.8921 101.028 30.3121 104.474 30.6145 105.396C30.8641 106.123 31.6897 106.92 32.2513 107.242C33.0049 107.662 35.9041 108.353 37.4881 108.466C41.8129 108.715 47.2129 108.727 50.5993 108.806C53.9089 108.97 59.9377 109.219 59.9881 109.207"
		stroke="black"
		stroke-width="2.4"
		stroke-linecap="round"
	/>
	<path
		d="M69.0408 70.7352L68.952 70.9512L68.9928 71.0688C69.1728 71.136 69.3 71.1816 69.3744 71.208C70.7472 71.664 73.7328 72.6792 75.0888 73.4304C76.3824 74.1528 78.6936 75.9576 80.0016 77.1768C80.7408 77.8704 83.4888 80.82 84.2832 81.8688C85.2384 83.136 86.6112 85.5816 87.1416 86.9352C87.756 88.5144 88.7688 91.9824 89.0064 93.1104C89.1864 93.9792 89.7816 97.7568 89.8992 99.8832C89.9472 100.982 89.532 104.429 89.2296 105.353C88.9824 106.08 88.1592 106.877 87.5976 107.201C86.844 107.621 83.9448 108.317 82.3632 108.43C78.0384 108.689 72.636 108.708 69.2496 108.792C65.9424 108.96 59.9136 109.219 59.8608 109.207"
		stroke="black"
		stroke-width="2.4"
		stroke-linecap="round"
	/>
	<path
		d="M43.8456 48.8425C43.8504 48.7345 43.8552 48.6265 43.86 48.5185C43.8624 48.4513 43.8648 48.3817 43.8672 48.3145C43.8672 48.3121 44.0352 49.3609 44.3232 50.8753C44.8032 53.2681 45.4344 55.4857 46.0416 56.5657C46.6104 57.5617 49.6056 61.1425 49.968 61.4929C51.4416 62.8777 53.0376 63.8977 54.7968 64.8313C55.896 65.4121 58.164 66.2593 59.2968 66.5401C59.5416 66.6001 59.7552 66.6505 59.9424 66.6889C60.0264 66.7057 60.1512 66.7273 60.3144 66.7561"
		stroke="black"
		stroke-width="1.2"
		stroke-linecap="round"
	/>
	<path
		d="M75.9144 48.816C75.9096 48.7104 75.9048 48.6024 75.9 48.4944C75.8976 48.4272 75.8952 48.3576 75.8928 48.2904C75.8928 48.288 75.7248 49.3368 75.4416 50.8512C74.964 53.2464 74.3352 55.464 73.7304 56.544C73.1616 57.54 70.1736 61.1256 69.8112 61.4784C68.34 62.8656 66.744 63.888 64.9872 64.824C63.888 65.4048 61.6224 66.2568 60.4896 66.54C60.2448 66.6 60.0312 66.6504 59.844 66.6888C59.76 66.7056 59.6352 66.7296 59.4744 66.756"
		stroke="black"
		stroke-width="1.2"
		stroke-linecap="round"
	/>
	<path
		d="M53.9232 64.9176L54.0312 64.6488C54.2832 65.1624 54.4752 66.3384 54.3816 67.1208C54.2952 67.7736 53.6712 69.3264 53.2464 69.8088C52.992 70.0896 52.3248 70.6536 51.996 70.872C51.576 71.1456 50.9856 71.4792 50.5176 71.7144C50.3112 71.8152 49.9944 71.9016 49.8672 71.892C49.488 71.8392 49.3464 71.3808 49.248 70.8384"
		stroke="black"
		stroke-width="1.2"
		stroke-linecap="round"
	/>
	<path
		d="M65.8608 64.908L65.7528 64.6392C65.5008 65.1528 65.3112 66.3312 65.4072 67.1112C65.4912 67.764 66.12 69.3168 66.5448 69.7968C66.7992 70.08 67.4688 70.6416 67.7976 70.86C68.2176 71.1312 68.8104 71.4648 69.276 71.7C69.4848 71.8008 69.7992 71.8872 69.9288 71.8776C70.3056 71.8224 70.4496 71.3664 70.5456 70.8216"
		stroke="black"
		stroke-width="1.2"
		stroke-linecap="round"
	/>
	<path
		d="M58.2023 42.2376C58.2383 42.1752 58.2719 42.1152 58.3055 42.0552C58.3079 42.0528 58.3103 42.0456 58.3103 42.048C58.3175 42.0576 58.3247 42.0672 58.3319 42.072C58.3559 42.1056 58.4351 42.4128 58.4567 42.6648C58.5287 43.5048 58.3271 44.6328 58.1183 45.1152C57.8783 45.66 57.1511 46.824 56.7815 47.2488C56.2487 47.8464 55.3871 48.3456 54.7535 48.5568C54.1175 48.7584 53.0423 48.9744 52.3535 49.0272C51.7151 49.068 50.5607 48.8592 49.8071 48.5952C49.5599 48.5064 48.4031 48.0336 47.8247 47.5032C47.6159 47.3112 46.7231 46.1424 46.5599 45.9048C46.0943 45.216 45.8663 44.0256 45.7775 43.1352C45.7199 42.5208 45.7751 41.5824 46.0271 40.896C46.1735 40.5024 46.7855 39.5784 47.2967 38.928C47.9975 38.0664 48.5087 37.5816 49.1711 37.2384C49.7303 36.9576 51.1415 36.5136 51.8231 36.4152C52.4399 36.3336 53.8295 36.4488 54.4775 36.6312C55.2719 36.8664 56.2847 37.344 56.6855 37.7616C56.9927 38.0904 57.8135 39.5472 57.9719 40.0128C58.1711 40.608 58.2263 41.796 58.2023 42.012C58.1975 42.0504 58.1855 42.1056 58.1711 42.1776"
		stroke="black"
		stroke-width="0.96"
		stroke-linecap="round"
	/>
	<path
		d="M61.5456 42.2352C61.512 42.1728 61.4784 42.1128 61.4448 42.0528C61.4424 42.0504 61.44 42.0432 61.44 42.0456C61.4328 42.0552 61.4232 42.0648 61.416 42.0696C61.3944 42.1032 61.3152 42.4104 61.2936 42.6624C61.2216 43.5024 61.428 44.6304 61.6368 45.1128C61.8768 45.6576 62.6064 46.8192 62.976 47.244C63.5088 47.8416 64.3704 48.3384 65.0064 48.5472C65.6424 48.7512 66.7176 48.9648 67.4064 49.0152C68.0448 49.056 69.1992 48.8448 69.9528 48.5784C70.2 48.4896 71.3568 48.0144 71.9352 47.4864C72.1416 47.292 73.032 46.1208 73.1952 45.8856C73.6608 45.1944 73.8864 44.004 73.9728 43.1136C74.0304 42.4992 73.9728 41.5632 73.7208 40.8744C73.5744 40.4832 72.9624 39.5592 72.4464 38.9088C71.7456 38.0496 71.2344 37.5648 70.572 37.224C70.0128 36.9432 68.5992 36.4992 67.9176 36.4032C67.3008 36.324 65.9112 36.4392 65.2632 36.624C64.4712 36.8592 63.4584 37.3392 63.0576 37.7568C62.7504 38.0856 61.932 39.5448 61.7736 40.0104C61.5768 40.6056 61.5216 41.7936 61.548 42.0096C61.5528 42.048 61.5624 42.1032 61.5792 42.1728"
		stroke="black"
		stroke-width="0.96"
		stroke-linecap="round"
	/>
	<path
		d="M58.86 42.7057C58.7712 42.7297 58.6824 42.7537 58.596 42.7777C58.5576 42.7897 58.5192 42.7993 58.4784 42.8113C58.4664 42.8137 58.4544 42.8185 58.4424 42.8209C58.5888 42.7873 60.0504 42.3456 60.7464 42.4896C60.8664 42.516 61.0608 42.5664 61.3296 42.6432C61.3344 42.6456 61.3392 42.6457 61.3392 42.6457"
		stroke="black"
		stroke-width="0.96"
		stroke-linecap="round"
	/>
	<path
		d="M60.8905 42.7033C60.9793 42.7273 61.0681 42.7513 61.1569 42.7753C61.1953 42.7873 61.2337 42.7969 61.2721 42.8089C61.2841 42.8137 61.2961 42.8161 61.3081 42.8185C61.1617 42.7849 59.7001 42.3457 59.0041 42.4921C58.8865 42.5185 58.6897 42.5689 58.4209 42.6457C58.4161 42.6457 58.4113 42.6481 58.4113 42.6481"
		stroke="black"
		stroke-width="0.96"
		stroke-linecap="round"
	/>
	<path
		d="M45.3048 42.2736C45.5328 42.3912 45.6648 42.4632 45.6936 42.4872C45.7008 42.492 45.7128 42.504 45.7248 42.5184C45.7224 42.5256 45.6864 42.5232 45.612 42.5136C44.5704 42.36 42.3192 41.0976 41.9208 40.9368C41.88 40.92 41.8584 40.9128 41.8512 40.9128"
		stroke="black"
		stroke-width="0.96"
		stroke-linecap="round"
	/>
	<path
		d="M74.4456 42.252C74.2176 42.3696 74.0856 42.4416 74.0568 42.4656C74.0496 42.4728 74.0376 42.4824 74.0256 42.4992C74.028 42.504 74.064 42.5016 74.1384 42.492C75.18 42.3384 77.4288 41.0712 77.8272 40.9104C77.868 40.8936 77.8896 40.8864 77.8968 40.884"
		stroke="black"
		stroke-width="0.96"
		stroke-linecap="round"
	/>
	<path
		d="M43.308 48.7656C43.3992 48.6384 43.4592 48.5592 43.4856 48.5256C43.5264 48.4752 43.56 48.4392 43.5864 48.42C43.6008 48.4104 43.6152 48.4056 43.632 48.4056C43.6416 48.4056 43.6488 48.408 43.6584 48.4104C43.5264 48.5664 42.8664 48.8496 42.3576 48.8016C41.7552 48.7392 40.9488 48.3552 40.6176 48.0432C40.2912 47.7192 39.7848 46.7976 39.5952 45.9C39.4008 44.9328 39.3816 42.8112 39.4224 41.5584C39.4248 41.5248 39.4272 41.5032 39.4296 41.4984"
		stroke="black"
		stroke-width="0.96"
		stroke-linecap="round"
	/>
	<path
		d="M76.452 48.7416C76.3584 48.6144 76.3008 48.5328 76.2744 48.5016C76.2336 48.4488 76.2 48.4128 76.1736 48.396C76.1592 48.384 76.1448 48.3792 76.128 48.3792C76.1184 48.3816 76.1088 48.384 76.0992 48.3864C76.2336 48.54 76.8936 48.8256 77.4 48.7752C78.0048 48.7104 78.8112 48.3264 79.14 48.012C79.4688 47.688 79.9728 46.7688 80.16 45.8688C80.3544 44.9016 80.3712 42.78 80.3256 41.5272C80.3232 41.4936 80.3208 41.4744 80.3184 41.4672"
		stroke="black"
		stroke-width="0.96"
		stroke-linecap="round"
	/>
	<path
		d="M42.3216 41.7888C42.3048 41.6928 42.288 41.5968 42.2712 41.5008C42.2688 41.4864 42.2616 41.4456 42.264 41.46C42.3 41.6568 42.3336 41.8536 42.3672 42.0528C42.4104 42.3192 43.4112 48.6192 43.56 49.212C43.6128 49.4256 43.6632 49.62 43.7136 49.7952C43.752 49.9344 43.8696 50.304 43.896 50.3928"
		stroke="black"
		stroke-width="0.96"
		stroke-linecap="round"
	/>
	<path
		d="M77.4263 41.7624C77.4431 41.6664 77.4599 41.5704 77.4767 41.4744C77.4791 41.46 77.4863 41.4192 77.4839 41.4336C77.4503 41.6304 77.4167 41.8272 77.3831 42.0264C77.3399 42.2928 76.3487 48.5928 76.1999 49.188C76.1471 49.4016 76.0967 49.596 76.0487 49.7712C76.0079 49.908 75.8927 50.28 75.8663 50.3688"
		stroke="black"
		stroke-width="0.96"
		stroke-linecap="round"
	/>
	<path
		d="M59.604 28.4712L59.7816 28.0848C59.7648 28.1256 59.6136 28.9464 59.4864 29.3328C59.2824 29.9376 58.5744 31.1448 58.2144 31.6656C56.712 33.7344 54.4056 34.8792 53.8272 35.1C53.5704 35.1936 52.9056 35.424 52.5744 35.5296C52.296 35.6184 52.0872 35.6736 51.9504 35.7C51.66 35.7504 51.2976 35.7336 51.084 35.6856"
		stroke="black"
		stroke-width="0.96"
		stroke-linecap="round"
	/>
	<path
		d="M60.1271 28.4713L59.9471 28.0825C59.9639 28.1257 60.1151 28.9465 60.2447 29.3305C60.4487 29.9353 61.1591 31.1425 61.5215 31.6633C63.0239 33.7297 65.3351 34.8721 65.9135 35.0905C66.1703 35.1841 66.8351 35.4145 67.1639 35.5177C67.4447 35.6065 67.6535 35.6617 67.7903 35.6881C68.0807 35.7385 68.4431 35.7217 68.6567 35.6737"
		stroke="black"
		stroke-width="0.96"
		stroke-linecap="round"
	/>
	<path
		d="M54.744 29.7336L54.8352 29.4096C54.8064 29.5032 54.4152 30.2712 53.8656 30.984C53.3736 31.6176 52.404 32.6688 51.8976 33.1104C51.1608 33.7416 49.884 34.5408 49.3584 34.776C48.8424 34.9992 47.5056 35.4576 46.8792 35.5632C46.6008 35.6088 46.104 35.616 45.7632 35.6064"
		stroke="black"
		stroke-width="0.96"
		stroke-linecap="round"
	/>
	<path
		d="M64.9872 29.7264L64.896 29.4024C64.9248 29.496 65.3184 30.2616 65.868 30.9744C66.36 31.608 67.332 32.6568 67.8384 33.0984C68.5752 33.7272 69.8544 34.5264 70.38 34.7592C70.896 34.9824 72.2328 35.4384 72.8616 35.544C73.14 35.5872 73.6368 35.5944 73.9776 35.5848"
		stroke="black"
		stroke-width="0.96"
		stroke-linecap="round"
	/>
	<path
		d="M52.6439 28.8456C52.5695 28.8504 52.5167 28.8648 52.4807 28.8912C52.3823 28.9656 51.9767 29.5056 51.8591 29.6472C51.5759 29.9928 51.1079 30.4752 50.8031 30.7344C49.7087 31.656 47.1911 33.0072 45.9551 33.3576C45.2399 33.5568 44.3111 33.6696 43.6727 33.612C43.1519 33.5616 42.2231 33.3792 42.0791 33.3456C41.8367 33.2856 41.4959 33.1608 41.3087 33.0576C40.9415 32.8488 40.4735 32.316 40.3127 31.8384"
		stroke="black"
		stroke-width="0.96"
		stroke-linecap="round"
	/>
	<path
		d="M67.0872 28.8336C67.1592 28.8384 67.2144 28.8528 67.2504 28.8816C67.3488 28.9536 67.7544 29.4936 67.872 29.6352C68.1552 29.9808 68.6256 30.4608 68.9304 30.72C70.0248 31.6416 72.5448 32.988 73.7808 33.3384C74.4984 33.5352 75.4248 33.6456 76.0632 33.588C76.584 33.5352 77.5128 33.3528 77.6592 33.3192C77.8992 33.2592 78.24 33.132 78.4272 33.0288C78.7944 32.8224 79.2624 32.2872 79.4208 31.8096"
		stroke="black"
		stroke-width="0.96"
		stroke-linecap="round"
	/>
	<path
		d="M44.8392 34.2096L44.8224 33.8448C44.964 34.0152 45.0216 35.2584 44.8296 36.2616C44.7168 36.8232 44.2873 37.9896 43.9705 38.5272C43.6945 38.9856 42.8112 39.924 42.3432 40.332C41.868 40.74 40.776 41.3016 40.2192 41.4144C39.7824 41.4936 38.9736 41.5008 38.5608 41.4192C38.2296 41.3472 37.5288 41.0496 37.236 40.872C36.948 40.692 36.5497 40.3368 36.4057 40.1376C36.1225 39.7176 36.2761 39.3264 36.4513 39.0744"
		stroke="black"
		stroke-width="0.96"
		stroke-linecap="round"
	/>
	<path
		d="M74.8992 34.188L74.916 33.8232C74.7744 33.9936 74.7192 35.2368 74.9112 36.24C75.024 36.8016 75.456 37.9656 75.7728 38.5032C76.0512 38.9616 76.9344 39.9 77.4024 40.3056C77.88 40.7112 78.972 41.2728 79.5288 41.3832C79.9656 41.4624 80.7768 41.4696 81.1872 41.388C81.5184 41.316 82.2192 41.016 82.512 40.8384C82.8 40.656 83.1984 40.3032 83.3424 40.1016C83.6232 39.6816 83.4696 39.2904 83.2944 39.0384"
		stroke="black"
		stroke-width="0.96"
		stroke-linecap="round"
	/>
	<path
		d="M36.7872 40.3248L36.7104 40.4232L36.744 40.536C37.0224 40.7376 37.62 40.704 38.1408 40.3176C38.604 39.9672 39.8712 38.5584 39.9432 38.4552C40.2744 37.9632 40.6728 36.5976 40.7088 36.3144C40.7352 36.0792 40.6944 35.6976 40.6176 35.268C40.5888 35.1096 40.56 34.9488 40.5312 34.788"
		stroke="black"
		stroke-width="0.96"
		stroke-linecap="round"
	/>
	<path
		d="M82.9608 40.2912L83.0376 40.3872L83.004 40.5024C82.7256 40.704 82.128 40.6704 81.6072 40.2864C81.1416 39.936 79.872 38.5296 79.8 38.4264C79.4688 37.9344 79.0704 36.5688 79.032 36.2856C79.0056 36.0504 79.0464 35.6688 79.1232 35.2392C79.1496 35.0784 79.1784 34.92 79.2072 34.7592"
		stroke="black"
		stroke-width="0.96"
		stroke-linecap="round"
	/>
	<path
		d="M42.7512 33.6792L42.9072 33.7416L42.9384 33.7272C42.4848 33.3528 41.328 32.7168 41.1072 32.5584C40.74 32.292 40.4544 31.8168 40.4712 31.6824C40.4856 31.6224 40.56 31.4952 40.6632 31.4976C41.5512 31.5216 42.66 31.428 43.0824 31.3344C43.512 31.236 44.5968 30.8256 45.168 30.4968C45.7392 30.1656 46.68 29.4816 47.3424 28.9032C47.6184 28.6608 47.8368 28.4592 47.9976 28.3008C48.216 28.0824 48.5928 27.6528 48.816 27.384"
		stroke="black"
		stroke-width="0.96"
		stroke-linecap="round"
	/>
	<path
		d="M76.9872 33.6552L76.8288 33.7152L76.8 33.7032C77.2512 33.3264 78.408 32.6904 78.6288 32.532C78.996 32.2632 79.2792 31.7856 79.2624 31.6536C79.248 31.5936 79.1736 31.4664 79.0704 31.4688C78.1824 31.4928 77.0736 31.4016 76.6512 31.308C76.2216 31.212 75.1368 30.8016 74.5656 30.4752C73.992 30.144 73.0512 29.4624 72.3864 28.884C72.1104 28.6416 71.892 28.44 71.7312 28.2816C71.5128 28.0656 71.136 27.636 70.9128 27.3672"
		stroke="black"
		stroke-width="0.96"
		stroke-linecap="round"
	/>
	<path
		d="M51.9648 54.7825C51.8856 54.7249 51.8376 54.6913 51.8232 54.6817C51.8064 54.6721 51.7968 54.6697 51.7992 54.6745C51.8784 54.7561 52.0224 54.9769 52.08 55.0633C52.4208 55.5481 53.5008 56.2393 54.2544 56.4529C54.54 56.5321 55.032 56.6113 55.152 56.6041C55.2696 56.5921 55.5384 56.5225 55.6224 56.4601C55.7664 56.3449 55.9944 56.0953 56.0424 56.0161"
		stroke="black"
		stroke-width="0.96"
		stroke-linecap="round"
	/>
	<path
		d="M67.8024 54.7704C67.8816 54.7128 67.9296 54.6792 67.9464 54.6696C67.9632 54.66 67.9704 54.6576 67.9704 54.6624C67.8912 54.744 67.7472 54.9648 67.6896 55.0512C67.3488 55.5384 66.2712 56.2296 65.5152 56.4456C65.232 56.5224 64.74 56.604 64.62 56.5968C64.5 56.5848 64.2312 56.5176 64.1496 56.4528C64.0032 56.3376 63.7776 56.0904 63.7296 56.0112"
		stroke="black"
		stroke-width="0.96"
		stroke-linecap="round"
	/>
	<path
		d="M67.6248 40.368C67.668 40.2672 67.6968 40.1976 67.716 40.1592C67.7592 40.0608 67.7832 40.008 67.7856 39.9984C67.7952 39.9576 67.7304 39.8184 67.6848 39.7776C67.5408 39.6648 66.9168 39.8064 66.6384 39.9816C66.3864 40.1472 65.7744 40.872 65.616 41.2608C65.3544 41.9256 65.1888 43.1496 65.2632 43.6992C65.34 44.2176 65.7456 45.1512 66.0576 45.4992C66.3216 45.7824 67.0824 46.0344 67.4784 45.948C67.9128 45.8424 68.5872 45.1776 68.7792 44.7168C69.0216 44.1048 69.144 42.8304 69.0912 42.2664C69.0336 41.6952 68.7432 40.6728 68.5176 40.248C68.3424 39.9312 67.824 39.6 67.4352 39.684C67.092 39.7704 66.4416 40.3584 66.2112 40.6992C65.9136 41.1504 65.5608 42.2112 65.532 42.7368C65.5056 43.3176 65.76 44.2416 66.0288 44.6616C66.2664 45.024 66.8328 45.3744 67.2528 45.3576C67.5576 45.3336 68.0544 44.9208 68.2584 44.5056C68.4792 44.0136 68.5008 42.4944 68.2488 41.4888C68.052 40.7352 67.6848 40.2528 67.4808 40.2792C67.2864 40.3248 66.6336 40.9464 66.3096 41.6232C66.1152 42.0336 65.8992 43.0776 65.9208 43.5648C65.9496 44.028 66.24 44.8632 66.4824 45.144C66.7056 45.384 67.404 45.4608 67.6536 45.2616C67.9848 44.9808 68.3064 44.1048 68.3832 43.4592C68.4408 42.9336 68.3856 41.9184 68.2704 41.5008C68.1648 41.1312 67.8576 40.764 67.7208 40.7112C67.524 40.6464 67.1112 40.8096 66.8736 41.1624C66.6744 41.472 66.3 42.624 66.2832 43.092C66.2688 43.6872 66.6864 44.5392 66.9048 44.664C67.0536 44.7408 67.4232 44.64 67.5912 44.4456C67.7664 44.2296 68.0808 43.3272 68.0976 42.7416C68.1048 42.2928 67.9008 41.4072 67.6752 41.256C67.452 41.1168 67.104 41.4096 66.948 41.9064C66.8208 42.3264 66.6984 43.3032 66.744 43.8576C66.7872 44.3184 66.9816 44.6712 67.1256 44.8368C67.4832 44.8008 67.6704 44.7144 67.7688 44.4912C67.92 44.1336 68.028 43.1832 67.9872 42.7032C67.9464 42.2688 67.764 42.0096 67.632 41.8944C67.4376 41.8896 67.2336 42.1656 67.2024 42.3984C67.1064 43.176 67.2576 43.9848 67.4448 44.2056C67.6512 44.1192 67.7496 44.0304 67.788 43.812C67.9224 43.0128 67.812 42.5016 67.7184 42.3672C67.356 42.6408 67.5144 43.9584 67.6272 44.0424C67.896 43.8624 67.8552 40.7088 68.0088 40.5384C68.2728 40.572 68.6136 41.0856 68.6952 41.4768C68.832 42.1776 68.6112 43.428 68.3664 43.9248C68.1984 44.2512 67.7496 44.7696 67.5192 44.8728C67.2312 44.9904 66.7392 44.8416 66.528 44.556C66.3264 44.256 66.1176 43.272 66.2304 42.684C66.2928 42.372 66.6312 41.4816 66.66 41.3328C66.6696 41.28 66.6744 41.2512 66.6744 41.244C66.6768 41.2152 66.7392 41.0736 66.8136 40.9752C66.8544 40.9248 66.948 40.8144 67.0992 40.6464"
		stroke="black"
		stroke-width="0.96"
		stroke-linecap="round"
	/>
	<path
		d="M52.1232 40.38C52.08 40.2792 52.0488 40.2096 52.032 40.1712C51.9864 40.0728 51.9624 40.02 51.9624 40.0104C51.9504 39.9696 52.0176 39.8304 52.0632 39.7896C52.2048 39.6744 52.8312 39.816 53.1096 39.9912C53.3616 40.1592 53.9736 40.8816 54.132 41.268C54.3936 41.9328 54.5616 43.1568 54.4896 43.7064C54.4128 44.2248 54.0096 45.1608 53.6976 45.5088C53.4336 45.7944 52.6728 46.044 52.2768 45.96C51.8424 45.8544 51.168 45.192 50.976 44.7312C50.7312 44.1192 50.6064 42.8424 50.6592 42.2808C50.7168 41.7096 51.0048 40.6872 51.2304 40.26C51.4032 39.9456 51.924 39.612 52.3104 39.696C52.6536 39.78 53.304 40.368 53.5368 40.7088C53.8344 41.16 54.1872 42.2208 54.2184 42.7464C54.2472 43.3248 53.9928 44.2512 53.7264 44.6712C53.4864 45.0336 52.9224 45.384 52.5024 45.3672C52.1976 45.3456 51.7008 44.9328 51.4944 44.52C51.2736 44.028 51.2496 42.5064 51.4992 41.5008C51.696 40.7472 52.0632 40.2648 52.2648 40.2912C52.4616 40.3368 53.1144 40.956 53.4408 41.6352C53.6352 42.0432 53.8536 43.0872 53.832 43.5744C53.8032 44.0376 53.5152 44.8728 53.2704 45.1536C53.0496 45.396 52.3512 45.4728 52.1016 45.2736C51.768 44.9928 51.4464 44.1168 51.3696 43.4712C51.3096 42.9456 51.3648 41.9304 51.4776 41.5128C51.5832 41.1432 51.8904 40.776 52.0272 40.7232C52.224 40.6584 52.6368 40.8216 52.8744 41.172C53.076 41.4816 53.4504 42.6336 53.4672 43.1016C53.484 43.6968 53.0664 44.5488 52.8504 44.6736C52.7016 44.7528 52.3296 44.6496 52.164 44.4576C51.9864 44.2416 51.6696 43.3392 51.6552 42.7536C51.6456 42.3048 51.8496 41.4192 52.0728 41.268C52.2984 41.1288 52.6464 41.4192 52.8024 41.9184C52.9296 42.336 53.0544 43.3128 53.0088 43.8672C52.968 44.3304 52.7712 44.6832 52.6272 44.8488C52.2696 44.8128 52.0824 44.724 51.984 44.5008C51.8328 44.148 51.7224 43.1952 51.7632 42.7152C51.804 42.2808 51.984 42.0216 52.1184 41.904C52.3128 41.9016 52.5168 42.1752 52.548 42.4104C52.644 43.188 52.4952 43.9944 52.308 44.2176C52.1016 44.1312 52.0032 44.0424 51.9648 43.824C51.8304 43.0248 51.9384 42.5136 52.0296 42.3792C52.3944 42.6528 52.2384 43.9704 52.1256 44.0544C51.8568 43.8744 51.8928 40.7208 51.7392 40.5504C51.4752 40.584 51.1344 41.1 51.0528 41.4888C50.9184 42.192 51.1416 43.4424 51.3864 43.9368C51.5544 44.2632 52.0032 44.7816 52.236 44.8848C52.5216 45 53.0136 44.8536 53.2248 44.5656C53.4264 44.2656 53.6352 43.2816 53.52 42.6936C53.4576 42.3816 53.1168 41.4912 53.088 41.3424C53.0784 41.292 53.0736 41.2608 53.0736 41.256C53.0712 41.2248 53.0088 41.0832 52.9344 40.9872C52.8936 40.9344 52.8 40.824 52.6488 40.656"
		stroke="black"
		stroke-width="0.96"
		stroke-linecap="round"
	/>
	<path
		d="M68.6856 41.568C68.5824 41.3856 68.544 41.316 68.508 41.2392C68.5032 41.2272 68.4864 41.1912 68.4912 41.2032C68.5296 41.2608 68.5488 41.2896 68.5512 41.2896C68.7696 41.5536 69.564 42.0672 70.1952 42.1176C70.488 42.1344 70.9992 41.8488 71.304 41.4864C71.3856 41.3832 71.448 41.2824 71.4912 41.184C71.5368 41.0832 71.5704 40.968 71.592 40.8384C71.616 40.6944 71.6352 40.3728 71.6376 40.2072"
		stroke="black"
		stroke-width="0.96"
		stroke-linecap="round"
	/>
	<path
		d="M51.0648 41.5825C51.168 41.4001 51.2064 41.3281 51.24 41.2537C51.2448 41.2417 51.2616 41.2033 51.2568 41.2153C51.2184 41.2729 51.1992 41.3017 51.1992 41.3041C50.9808 41.5657 50.1864 42.0817 49.5552 42.1321C49.2624 42.1513 48.7488 41.8657 48.4464 41.5033C48.3648 41.4001 48.3024 41.3017 48.2568 41.2033C48.2112 41.1001 48.18 40.9849 48.156 40.8553C48.132 40.7113 48.1128 40.3921 48.108 40.2241"
		stroke="black"
		stroke-width="0.96"
		stroke-linecap="round"
	/>
	<path
		d="M53.58 56.3185L53.2368 56.1673C53.2248 56.1553 54.3408 56.4793 54.6864 56.5513C55.02 56.6185 57.0408 56.8921 57.2448 56.8849C57.624 56.8681 58.2408 56.7769 58.2816 56.7481"
		stroke="black"
		stroke-width="0.96"
		stroke-linecap="round"
	/>
	<path
		d="M66.192 56.3088L66.5352 56.1576C66.5472 56.1456 65.4312 56.472 65.0856 56.544C64.7496 56.6112 62.7312 56.8872 62.5272 56.88C62.148 56.8656 61.5312 56.7744 61.4904 56.7456"
		stroke="black"
		stroke-width="0.96"
		stroke-linecap="round"
	/>
</svg>

