<svg xmlns="http://www.w3.org/2000/svg" width="48" height="48" viewBox="0 0 48 48" fill="none">
  <path d="M21.9481 3.86398C21.9073 3.84478 21.4849 3.45118 21.3049 3.30718C21.0049 3.06958 20.0233 2.78398 19.4065 2.70718C18.7609 2.63518 17.6233 2.69278 17.0065 2.85838C16.3561 3.03838 15.0913 3.73678 14.4193 4.29598C13.4161 5.14318 11.9617 7.09198 10.5841 9.19438C10.0585 9.99118 9.06965 11.2968 8.58725 11.808C8.04965 12.3576 7.49045 12.6744 6.46325 12.9144C5.53685 13.1136 5.23205 13.0536 4.42565 12.6C4.28885 12.5136 3.88085 12.2304 3.73685 12.132C3.42485 11.916 3.26645 11.6904 3.17285 11.3616" stroke="black" stroke-width="1.92" stroke-linecap="round" stroke-linejoin="round"/>
  <path d="M11.4697 13.8768L11.3857 13.8216C11.2609 13.8312 9.63605 16.6128 9.11525 17.7312C8.67605 18.696 7.88405 21.2808 7.75925 22.2768C7.62725 23.3856 7.69685 25.3968 7.87925 26.4696C8.01365 27.228 9.47045 31.8552 9.46325 32.0232" stroke="black" stroke-width="1.92" stroke-linecap="round" stroke-linejoin="round"/>
  <path d="M12.6961 43.8288C12.7465 43.6464 13.3969 40.9488 13.5241 40.3296C13.7473 39.2352 13.7233 36.456 13.4689 35.2008C13.3609 34.6776 12.4801 32.1072 12.1705 30.612C11.7577 28.5888 11.4745 26.7624 11.5297 26.1312" stroke="black" stroke-width="1.92" stroke-linecap="round" stroke-linejoin="round"/>
  <path d="M33.6816 13.5696C33.9168 13.6272 34.3968 13.8912 34.7856 14.4912C35.3808 15.42 36.636 17.8728 36.9576 18.7512C37.4232 20.0352 37.8168 22.6608 37.8912 24.6744C37.968 26.604 38.7312 30.4704 38.9376 31.0416C39.12 31.5336 39.3744 31.884 39.4824 32.004" stroke="black" stroke-width="1.92" stroke-linecap="round" stroke-linejoin="round"/>
  <path d="M34.0153 28.3896C34.0849 28.62 34.2553 29.184 34.3561 29.5152C34.8577 31.2432 35.2849 33.6432 35.2417 34.6392C35.1865 35.76 34.2001 39.0648 34.1089 39.8736C34.0057 40.8456 34.1833 44.8632 34.4713 45.576C34.5481 45.7608 34.6537 45.9504 34.7425 46.0776" stroke="black" stroke-width="1.92" stroke-linecap="round" stroke-linejoin="round"/>
  <path d="M29.5 28C29.5384 28.0576 29.6881 28.4256 30.0553 29.3328C30.3481 30.0936 30.5689 31.1184 30.5737 31.3968C30.5761 32.184 30.2833 33.792 30.2185 34.3464C30.1105 35.3496 30.5161 37.4688 30.9841 38.988C31.4209 40.3872 31.9825 41.1264 32.1745 41.3352" stroke="black" stroke-width="1.92" stroke-linecap="round" stroke-linejoin="round"/>
  <path d="M16.6969 27.6432C16.6585 27.7896 16.6129 28.0656 16.6057 28.2912C16.5913 28.788 16.7929 30.2616 17.0473 30.9912C17.3569 31.8168 17.9545 33.4536 18.1177 34.3032C18.4033 35.8632 16.8121 40.2864 16.3849 40.9368" stroke="black" stroke-width="1.92" stroke-linecap="round" stroke-linejoin="round"/>
  <path d="M14.5536 19.512C14.4912 19.584 14.4384 21.6432 14.7792 22.9176C14.9664 23.604 15.5328 25.0872 16.0392 25.9104C16.5168 26.6664 17.6328 27.7872 18.1368 28.1664C18.5904 28.5 19.5024 28.9776 19.9752 29.1504C20.9976 29.5104 23.6952 29.664 25.176 29.4312C26.0232 29.292 27.4176 28.8288 28.0584 28.4616C28.6656 28.104 29.664 27.1728 30.0384 26.6232C30.4728 25.9704 31.1232 24.5256 31.344 23.832C31.5864 23.0592 31.788 21.6768 31.8312 20.9448C31.8552 20.472 31.7976 18.7008 31.8096 18.6024" stroke="black" stroke-width="0.96" stroke-linecap="round" stroke-linejoin="round"/>
  <path d="M11.3617 20.0784C11.3785 20.0832 11.5033 20.0592 11.5993 20.0424C12.1609 19.9368 13.2913 19.5936 13.9897 19.176C14.9665 18.5784 16.6537 16.6032 17.1769 15.5448C17.9161 14.0376 18.7393 11.7912 18.7081 11.412" stroke="black" stroke-width="1.2" stroke-linecap="round" stroke-linejoin="round"/>
  <path d="M18.1321 16.332C18.1969 16.3128 18.3049 16.2864 18.3529 16.2576C19.0465 15.8568 20.9257 14.4408 21.4585 13.6608C22.1257 12.6696 22.8337 10.8816 22.8025 10.8624" stroke="black" stroke-width="1.2" stroke-linecap="round" stroke-linejoin="round"/>
  <path d="M25.5361 16.1712C25.5409 16.1712 25.4425 16.188 25.3873 16.1736C24.9553 16.0584 23.5537 14.6832 23.2321 13.956C23.1073 13.668 22.8001 12.7824 22.7065 12.4392C22.6393 12.1824 22.6057 11.892 22.6153 11.844" stroke="black" stroke-width="1.2" stroke-linecap="round" stroke-linejoin="round"/>
  <path d="M27.8112 16.0416C27.7488 16.0128 26.4624 14.8872 26.088 14.3472C25.5744 13.6032 25.296 12.9984 25.2384 12.8328" stroke="black" stroke-width="1.2" stroke-linecap="round" stroke-linejoin="round"/>
  <path d="M33.4345 18.2784C33.4153 18.2928 33.3961 18.3048 33.3817 18.3144C33.2329 18.4176 32.6665 18.5496 32.2369 18.4368C31.7473 18.2976 30.1105 16.8504 29.4625 15.9312C28.6825 14.8176 27.5665 12.672 27.0745 11.6736" stroke="black" stroke-width="1.2" stroke-linecap="round" stroke-linejoin="round"/>
  <path d="M26.1457 16.3992C26.1193 16.4112 26.0977 16.4232 26.0833 16.4328C25.7737 16.6896 25.5505 18.0264 25.7185 18.6312C25.9849 19.5672 26.5993 20.2368 26.8993 20.2944C27.1993 20.3424 27.6145 19.836 27.6769 19.3296C27.7393 18.7584 27.5905 17.6544 27.3793 17.1504C27.2209 16.7904 26.8585 16.4472 26.6425 16.3848C26.3593 16.3104 25.9656 16.4211 25.8624 16.8267C25.848 16.8915 25.7555 17.2207 25.7507 17.2447C25.7363 17.3311 25.736 17.4093 25.7024 17.5293" stroke="black" stroke-width="0.72" stroke-linecap="round" stroke-linejoin="round"/>
  <path d="M19.8697 16.368C19.8985 16.38 19.9201 16.392 19.9345 16.4016C20.2393 16.6608 20.4505 18 20.2753 18.6024C19.9993 19.5384 19.3777 20.2008 19.0777 20.256C18.7801 20.2992 18.3697 19.7904 18.3121 19.2816C18.2545 18.7104 18.4153 17.6064 18.6313 17.1072C18.7921 16.7472 19.1593 16.4088 19.3753 16.3488C19.6585 16.2768 20.0797 16.4777 20.1781 16.8857C20.1949 16.9481 20.247 17.1608 20.2518 17.1872C20.2662 17.2712 20.266 17.3528 20.2996 17.4752" stroke="black" stroke-width="0.72" stroke-linecap="round" stroke-linejoin="round"/>
  <path d="M20.4576 23.4C20.4576 23.4 20.5992 23.5608 20.6616 23.6208C21.2928 24.2544 22.2864 24.5496 22.452 24.5688C22.6416 24.5856 23.0616 24.5928 23.088 24.5856" stroke="black" stroke-width="0.72" stroke-linecap="round" stroke-linejoin="round"/>
  <path d="M25.4905 23.424C25.4905 23.424 25.3465 23.5848 25.2841 23.6448C24.6457 24.2712 23.6473 24.5568 23.4817 24.5736C23.2921 24.5904 22.8721 24.5904 22.8457 24.5832" stroke="black" stroke-width="0.72" stroke-linecap="round" stroke-linejoin="round"/>
  <path d="M27.54 17.2488C27.5568 17.3136 27.5904 17.4024 27.6216 17.4456C27.7248 17.5656 28.1976 17.676 28.452 17.5944C28.584 17.5512 28.8672 17.4 28.9968 17.3136C29.0256 17.292 29.0496 17.2728 29.0688 17.2512" stroke="black" stroke-width="0.72" stroke-linecap="round" stroke-linejoin="round"/>
  <path d="M18.4704 17.2032C18.4512 17.268 18.4176 17.3568 18.384 17.3976C18.2808 17.5176 17.8056 17.6256 17.5536 17.5392C17.424 17.496 17.1384 17.34 17.0112 17.2536C16.9824 17.232 16.9584 17.2104 16.9392 17.1888" stroke="black" stroke-width="0.72" stroke-linecap="round" stroke-linejoin="round"/>
  <path d="M27.7777 18.3672C27.8233 18.4392 27.8473 18.4704 27.8977 18.4944C28.0825 18.5784 28.6969 18.7128 28.8673 18.6312C28.9705 18.5808 29.0953 18.4968 29.2441 18.3792C29.2873 18.3432 29.3329 18.2976 29.3809 18.2424" stroke="black" stroke-width="0.72" stroke-linecap="round" stroke-linejoin="round"/>
  <path d="M18.2209 18.3192C18.1753 18.3912 18.1489 18.4224 18.0985 18.444C17.9113 18.5256 17.2969 18.6576 17.1265 18.5736C17.0257 18.5208 16.9009 18.4344 16.7545 18.3168C16.7113 18.2808 16.6657 18.2328 16.6177 18.1776" stroke="black" stroke-width="0.72" stroke-linecap="round" stroke-linejoin="round"/>
  <path d="M24.5952 4.07517C24.6576 4.05837 25.3296 3.68877 25.9128 3.54477C26.3952 3.42717 28.0416 3.28317 28.4232 3.29757C29.2488 3.33597 30.8208 3.65037 31.4376 3.88557C32.1672 4.17357 33.2472 4.90797 33.8568 5.49837C34.4472 6.07917 35.2992 7.35357 35.604 8.09277C35.7912 8.55597 36.4176 10.6944 36.6312 11.3016C36.912 12.096 37.5408 13.296 37.8264 13.6368C38.1024 13.956 38.6472 14.2512 39.012 14.3448C39.3192 14.4144 40.0512 14.364 40.3392 14.2056C40.416 14.16 40.5264 14.0688 40.5552 14.0352" stroke="black" stroke-width="1.92" stroke-linecap="round" stroke-linejoin="round"/>
  <path d="M19.8169 29.3064C19.8265 29.4072 19.8385 29.88 19.8193 30.1104C19.7617 30.8088 19.3129 31.9656 18.9265 32.2944C18.6529 32.5176 18.3745 32.5704 18.3169 32.5728" stroke="black" stroke-width="0.96" stroke-linecap="round" stroke-linejoin="round"/>
  <path d="M26.0928 29.3376C26.0808 29.4384 26.064 29.9112 26.0808 30.144C26.1312 30.84 26.568 32.0016 26.952 32.3328C27.2232 32.5608 27.5016 32.616 27.5592 32.6184" stroke="black" stroke-width="0.96" stroke-linecap="round" stroke-linejoin="round"/>
  <path d="M12.1441 34.0944C11.9377 34.2336 11.7409 34.2936 10.9033 34.2984C9.94569 34.3128 9.12249 34.4376 8.94489 34.5984C8.81049 34.7304 8.63529 35.2368 8.63049 35.868C8.63049 36.6168 8.87049 38.0088 9.19449 38.664C9.57129 39.3816 11.7217 40.5792 12.2305 40.7544C12.8857 40.9776 13.4065 41.0592 13.5265 41.0712" stroke="black" stroke-width="0.96" stroke-linecap="round" stroke-linejoin="round"/>
  <path d="M35 34.5C35 34.5 35.4688 34.5336 35.5 34.536C35.5648 34.5384 36.0409 34.4664 36.4945 34.536C36.7321 34.5744 37.0441 34.872 37.1305 35.1192C37.2121 35.3808 37.2049 36.7608 37.0729 37.4856C36.9481 38.1504 36.4249 39.1632 36.0049 39.5256C35.6185 39.8544 34.0729 40.692 33.5641 40.8624C32.9041 41.0784 32.3833 41.1552 32.2633 41.1672" stroke="black" stroke-width="0.96" stroke-linecap="round" stroke-linejoin="round"/>
  <path d="M13.8408 40.9944C14.0064 40.9776 15.0672 41.3304 15.7656 41.4432C16.1112 41.496 20.5152 41.6208 22.1856 41.6736C23.784 41.7096 26.1888 41.712 27.0216 41.7048" stroke="black" stroke-width="0.96" stroke-linecap="round" stroke-linejoin="round"/>
  <path d="M31.9489 41.0856C31.7833 41.0664 30.7201 41.4096 30.0193 41.5128C29.6737 41.5656 25.2697 41.6448 23.5993 41.6808C21.9985 41.7 19.5961 41.6808 18.7633 41.664" stroke="black" stroke-width="0.96" stroke-linecap="round" stroke-linejoin="round"/>
  <path d="M27.2544 32.2608C27.252 32.2608 27.2616 32.2656 27.264 32.268C28.8432 32.8728 29.1816 32.9544 29.4096 32.9592C29.6376 32.964 30.084 32.9376 30.1776 32.9256C30.1848 32.9232 30.192 32.9232 30.1944 32.9208" stroke="black" stroke-width="0.96" stroke-linecap="round" stroke-linejoin="round"/>
</svg>