<svg xmlns="http://www.w3.org/2000/svg" width="48" height="48" viewBox="0 0 48 48" fill="none">
  <path d="M39.0311 5.98804C39.0503 6.01444 39.0599 6.04564 39.0599 6.07924C38.9687 11.8944 38.9039 31.7952 38.9423 33.8544C39.0071 35.34 39.1703 39.768 39.0815 40.0056C38.9687 40.2768 35.5991 40.752 34.0919 40.9584C30.0935 41.532 23.1911 42.2376 22.9055 42.2472C22.8023 42.252 22.6871 42.24 22.6655 42.2352" stroke="black" stroke-width="1.92" stroke-linecap="round" stroke-linejoin="round"/>
  <path d="M7.10155 10.8048C7.04635 18.2256 6.95755 29.3472 6.92155 33.048C6.87355 34.3272 6.65995 38.2464 6.64795 39.24C6.65035 39.7104 6.75595 39.984 6.98395 40.068C9.04555 40.728 22.6439 42.2376 22.8503 42.2472C22.9535 42.252 23.0687 42.24 23.0903 42.2376" stroke="black" stroke-width="1.92" stroke-linecap="round" stroke-linejoin="round"/>
  <path d="M38.8607 5.98802C38.8703 6.00482 38.8655 5.94962 38.8655 5.93042C38.8367 5.58722 38.7575 5.32802 38.6255 5.24402C37.4591 4.52162 23.0543 5.28722 22.8095 5.31122C22.5839 5.33282 22.5047 5.34962 22.4471 5.37362" stroke="black" stroke-width="1.92" stroke-linecap="round" stroke-linejoin="round"/>
  <path d="M17.3616 4.94403C17.9136 4.96323 22.7304 5.25363 23.3208 5.31363C23.544 5.33763 23.6232 5.35443 23.6808 5.38083" stroke="black" stroke-width="1.92" stroke-linecap="round" stroke-linejoin="round"/>
  <path d="M14.5664 18.5232C14.6576 18.5136 15.0392 18.3936 15.1952 18.3576C16.148 18.1464 18.92 17.9904 21.0152 18.0336C21.3392 18.0384 22.448 18.0408 22.7408 18.0336C22.9904 18.0264 23.4584 18.0048 23.456 18.0048" stroke="black" stroke-width="1.92" stroke-linecap="round" stroke-linejoin="round"/>
  <path d="M31.2079 18.6072C31.1191 18.5952 30.7375 18.4728 30.5815 18.4368C29.6311 18.2136 26.8591 18.0288 24.7639 18.0528C24.4399 18.0552 23.3311 18.0432 23.0407 18.0336C22.7887 18.0264 22.3231 18 22.3231 18" stroke="black" stroke-width="1.92" stroke-linecap="round" stroke-linejoin="round"/>
  <path d="M14.9 25.3426C15.1328 25.381 16.2968 25.3498 16.9376 25.3258C18.5144 25.3354 22.004 24.9658 22.34 25.0138C22.544 25.0474 23.0914 24.9778 23.2474 25.0138C23.3122 25.0282 23.7947 25.0018 23.9339 25.0138" stroke="black" stroke-width="1.92" stroke-linecap="round" stroke-linejoin="round"/>
  <path d="M31.6688 25.4266C31.436 25.4626 30.272 25.4194 29.6336 25.3906C28.0568 25.3834 24.5696 24.9778 24.2336 25.0234C24.0296 25.0546 23.4115 24.9898 23.2555 25.0234C23.1907 25.0402 22.7002 25.0138 22.561 25.0234" stroke="black" stroke-width="1.92" stroke-linecap="round" stroke-linejoin="round"/>
  <path d="M14 33.6624C14.2352 33.7488 14.3936 33.804 14.4752 33.8232C14.7224 33.8832 18.0632 33.9408 19.7504 34.1544C20.8784 34.2912 21.7832 34.3704 22.2176 34.3776C22.5728 34.3824 22.7576 34.344 22.7552 34.344" stroke="black" stroke-width="1.92" stroke-linecap="round" stroke-linejoin="round"/>
  <path d="M31.6231 33.7512C31.3879 33.8352 31.2271 33.888 31.1455 33.9072C30.8983 33.9648 27.5551 33.9888 25.8679 34.1856C24.7375 34.3104 23.8327 34.38 23.3983 34.3824C23.0431 34.3848 22.8583 34.344 22.8607 34.344" stroke="black" stroke-width="1.92" stroke-linecap="round" stroke-linejoin="round"/>
  <path d="M16.4231 5.56561C16.2047 5.77201 15.9815 5.93281 15.3215 6.34561C13.5095 7.52401 7.8287 10.992 7.4015 11.2536C7.3655 11.2752 7.3319 11.2992 7.3031 11.3256" stroke="black" stroke-width="1.92" stroke-linecap="round" stroke-linejoin="round"/>
  <path d="M16.7327 5.8056C16.7111 6.0264 16.3175 7.3776 16.2551 8.1264C16.1423 9.4848 15.7415 11.3424 15.6263 12.2328C15.5951 12.4536 15.5471 12.6144 15.5183 12.66" stroke="black" stroke-width="1.92" stroke-linecap="round" stroke-linejoin="round"/>
  <path d="M7.51436 11.4912L7.51196 11.5464C7.69436 11.6424 11.6376 11.7144 12.8688 11.94C13.2768 12.0144 14.9208 12.4128 15.2256 12.4536C15.2448 12.456 15.2736 12.4608 15.312 12.4632" stroke="black" stroke-width="1.92" stroke-linecap="round" stroke-linejoin="round"/>
</svg>