<svg xmlns="http://www.w3.org/2000/svg" width="120" height="120" viewBox="0 0 120 120" fill="none">
  <path d="M59.4216 91.2624L60.1896 90.9936C60.1704 91.0008 60.0024 91.08 59.9424 91.0992C59.0592 91.3776 57.504 91.452 55.1352 91.3008C50.196 90.9912 45.1752 90.9432 41.52 91.02C34.1184 91.2792 14.0232 91.8528 13.1376 91.9344C11.3328 92.0976 6.9864 91.8096 6.4608 91.3608C6.0864 91.0272 6 88.1448 6.1224 85.4952C6.2304 83.4576 6.4176 79.5048 6.4968 77.5896C6.5256 76.5672 6.6192 67.356 6.8976 62.784C7.2216 59.0232 7.8144 51.4536 8.0832 47.6448C8.46 42.9408 9.168 36.5952 9.5736 32.9952C10.26 27.1584 10.6344 24.7776 10.8984 24.4896C11.1816 24.1968 12.7056 23.9184 14.0136 23.7672C19.428 23.2056 20.9904 23.1432 26.9184 23.172C30.7056 23.1768 37.8792 23.1936 41.2656 23.2008C44.8704 23.304 55.1712 23.6616 55.8336 23.6544C57.012 23.6304 59.3808 23.6568 60.9648 23.7456C61.0056 23.748 61.0728 23.748 61.1664 23.7432" stroke="black" stroke-width="2.2" stroke-linecap="round"/>
  <path d="M60.4032 91.2624L59.6328 90.9936C59.6544 91.0008 59.8224 91.08 59.8824 91.0992C60.7632 91.3752 62.3208 91.4472 64.6896 91.2936C69.6288 90.9768 74.6496 90.9216 78.3048 90.9912C85.7064 91.2384 105.802 91.7832 106.687 91.8624C108.492 92.0232 112.836 91.7304 113.364 91.2816C113.736 90.9456 113.82 88.0632 113.693 85.4136C113.582 83.376 113.388 79.4232 113.306 77.508C113.278 76.488 113.17 67.2768 112.884 62.7048C112.553 58.944 111.948 51.3768 111.674 47.5656C111.293 42.864 110.575 36.5184 110.162 32.9208C109.469 27.084 109.09 24.7032 108.826 24.4152C108.54 24.1248 107.016 23.8488 105.708 23.7C100.294 23.1432 98.7312 23.0856 92.8032 23.1216C89.016 23.1336 81.8424 23.16 78.4536 23.1744C74.8512 23.2824 64.5504 23.6544 63.888 23.6472C62.7096 23.6256 60.3408 23.6568 58.7592 23.7456C58.7184 23.748 58.6512 23.748 58.5552 23.7456" stroke="black" stroke-width="2.2" stroke-linecap="round"/>
  <path d="M40.8504 72.2136L40.5144 72.2568C40.5912 72.2784 41.6736 72.288 42.2304 72.2952C43.7424 72.3048 46.4304 72.3048 48.1872 72.0432C50.2128 71.736 53.1312 71.7864 54.936 71.832C57.1968 71.8176 60.0408 71.568 60.0768 71.5608C60.48 71.4624 61.0272 71.0376 61.248 70.6056C61.38 70.3416 61.356 60.7296 61.0992 57.2736C60.936 55.392 60.5904 51.0816 60.5616 50.0208C60.5496 49.5024 60.6984 45.2016 60.636 43.4328C60.54 41.0184 60.8016 38.2296 60.7848 37.62C60.7632 37.1496 60.504 36.7272 60.096 36.4968C59.364 36.1104 56.7864 35.9736 53.8656 35.9328C52.0032 35.928 48.8208 35.9904 47.5968 36.132C46.9752 36.1944 44.9736 36.1176 44.4696 36.1656C44.1696 36.1944 43.2672 36.4272 43.2024 36.432C43.1064 36.4392 41.0976 36.3096 40.7688 36.2616C40.6512 36.2448 40.6032 36.2544 40.4904 36.2832" stroke="black" stroke-width="1.68" stroke-linecap="round"/>
  <path d="M40.5385 72.2136L40.8745 72.2544C40.8001 72.2784 39.7177 72.2904 39.1609 72.2976C37.6465 72.3096 34.9585 72.3144 33.2017 72.0528C31.1761 71.7504 28.2577 71.8056 26.4553 71.8536C24.1921 71.8416 21.3481 71.5968 21.3121 71.5896C20.9089 71.4912 20.3617 71.0664 20.1385 70.6368C20.0065 70.3728 20.0161 60.7608 20.2681 57.3048C20.4289 55.4208 20.7673 51.1104 20.7937 50.052C20.8057 49.5336 20.6497 45.2328 20.7097 43.464C20.8033 41.0472 20.5369 38.2608 20.5537 37.6512C20.5729 37.1808 20.8321 36.756 21.2401 36.528C21.9697 36.1392 24.5473 35.9976 27.4681 35.952C29.3329 35.9472 32.5129 36.0024 33.7393 36.1416C34.3609 36.204 36.3601 36.1224 36.8665 36.1728C37.1641 36.1992 38.0689 36.432 38.1337 36.4368C38.2297 36.444 40.2385 36.312 40.5673 36.2616C40.6849 36.2448 40.7329 36.2544 40.8457 36.2832" stroke="black" stroke-width="1.68" stroke-linecap="round"/>
  <path d="M41.8104 72.1464C41.6256 72.2352 41.5224 72.288 41.4984 72.3024C41.4768 72.3168 40.7544 72.516 40.5984 72.5328C40.3704 72.5592 39.8328 72.3192 39.588 72.204C39.4632 72.1488 39.3 72.156 39.2424 72.1872C39.2304 72.1944 39.2112 72.2136 39.1896 72.24" stroke="black" stroke-width="1.68" stroke-linecap="round"/>
  <path d="M39.5784 72.1488C39.7632 72.2352 39.8664 72.288 39.8904 72.3048C39.912 72.3168 40.6344 72.516 40.7928 72.5328C41.0184 72.5592 41.556 72.3168 41.8032 72.204C41.9256 72.1464 42.0888 72.1536 42.1464 72.1848C42.1608 72.192 42.1776 72.2112 42.2016 72.2376" stroke="black" stroke-width="1.68" stroke-linecap="round"/>
  <path d="M104.894 57.8112L104.827 57.3576L104.957 57.2832C105.082 57.3912 105.168 57.4704 105.214 57.5208C106.622 59.22 109.726 62.064 109.93 62.2656C109.858 62.6328 109.061 63.2112 108.043 63.8952C107.486 64.272 106.63 64.9728 106.313 65.4048C106.214 65.5392 105.706 66.3624 105.66 66.4128C105.643 66.432 105.6 66.4656 105.535 66.5184" stroke="black" stroke-width="1.68" stroke-linecap="round"/>
  <path d="M13.9056 57.8808L13.9728 57.4272L13.8408 57.3528C13.716 57.4608 13.632 57.54 13.5864 57.5904C12.18 59.292 9.07916 62.1408 8.87756 62.3424C8.94956 62.7096 9.74636 63.2856 10.764 63.9696C11.3232 64.344 12.18 65.0448 12.4992 65.4768C12.5976 65.6112 13.1064 66.432 13.1544 66.4824C13.1712 66.5016 13.212 66.5352 13.2768 66.588" stroke="black" stroke-width="1.68" stroke-linecap="round"/>
  <path d="M68.352 48.3192L67.7496 48.0792C67.86 48.0096 67.9536 47.964 68.0304 47.9448C68.1744 47.9064 69.3552 47.7672 69.9288 47.7C73.26 47.388 87.2952 46.5432 90.852 46.2792C91.0536 46.2672 91.2552 46.2552 91.4568 46.2432" stroke="black" stroke-width="1.68" stroke-linecap="round"/>
  <path d="M70.308 56.9856C69.8016 56.9784 69.4872 56.9784 69.36 56.9808C69.2328 56.9856 69.12 56.9976 69.0168 57.0216L69.0096 57.1392C69.4152 57.2424 69.6744 57.3048 69.7872 57.3264C70.9512 57.54 80.352 57.5952 84.1632 57.4944C87.2112 57.36 91.8384 57.0096 92.2344 56.9808" stroke="black" stroke-width="1.68" stroke-linecap="round"/>
  <path d="M70.5457 65.9472C70.3201 66.0936 70.1833 66.1872 70.1329 66.2208C70.0801 66.2568 70.0441 66.2856 70.0225 66.3096C70.3921 66.3312 70.6321 66.3432 70.7473 66.348C74.0281 66.3816 79.8577 66.528 84.3961 66.4128C90.0433 66.156 91.7521 65.8272 91.9609 65.7888C91.9633 65.7864 91.9705 65.7864 91.9681 65.7888" stroke="black" stroke-width="1.68" stroke-linecap="round"/>
  <path d="M14.304 57.468C14.3232 57.1968 14.3304 57.0168 14.3304 56.928C14.3304 56.8392 14.3208 56.7144 14.3016 56.5536C14.28 56.568 14.2584 56.7024 14.2464 56.9664C14.196 58.3776 13.9968 59.5752 13.4376 62.0808C12.9768 64.2336 12.8496 65.6256 12.8448 65.976C12.8424 66.1128 12.8544 66.2832 12.8616 66.3456" stroke="black" stroke-width="1.68" stroke-linecap="round"/>
  <path d="M104.974 57.6648C104.974 57.576 104.971 57.5184 104.969 57.4872C104.966 57.4584 104.938 57.372 104.952 57.3984C105.012 57.5352 105.199 58.4376 105.31 59.1744C105.718 61.992 105.605 66.5832 105.646 66.84L105.662 66.8304C105.665 66.8136 105.665 66.8016 105.662 66.7944C105.658 66.7488 105.648 66.7056 105.643 66.66C105.624 66.4224 105.612 66.2208 105.612 66.0528C105.614 65.3664 105.744 64.4424 105.857 63.8496" stroke="black" stroke-width="1.68" stroke-linecap="round"/>
</svg>